<svg id="Layer_1" data-name="Layer 1" xmlns="http://www.w3.org/2000/svg" viewBox="0 0 400 400"><defs><style>.cls-1{fill:#fff;}.cls-2{fill:#F78E21;}</style></defs><rect class="cls-1" width="400" height="400"/><path class="cls-2" d="M231.81,178.1v0h0S231.81,178.12,231.81,178.1Z"/><path class="cls-2" d="M184.14,120.58a11.25,11.25,0,0,1,1.8-1Z"/><path class="cls-2" d="M231.81,178.1v0h0S231.81,178.12,231.81,178.1Z"/><polygon class="cls-2" points="281.07 159.5 281.06 159.51 281.06 159.48 281.07 159.5"/><path class="cls-2" d="M275.28,174.71a10.14,10.14,0,0,1-.95.55Z"/><path class="cls-2" d="M274.3,175.28l0,0,0,0Z"/><ellipse class="cls-2" cx="202.24" cy="129.37" rx="39.22" ry="22.64" transform="translate(48.21 313.52) rotate(-82.7)"/><ellipse class="cls-2" cx="149.88" cy="136.2" rx="22.64" ry="39.22" transform="translate(-30.72 44.57) rotate(-15.36)"/><ellipse class="cls-2" cx="149.88" cy="136.2" rx="22.64" ry="39.22" transform="translate(-30.72 44.57) rotate(-15.36)"/><ellipse class="cls-2" cx="211.62" cy="270.95" rx="22.64" ry="39.22" transform="translate(-50 47.9) rotate(-11.56)"/><ellipse class="cls-2" cx="157.05" cy="265.83" rx="39.22" ry="22.64" transform="translate(-140.89 346.86) rotate(-74.64)"/><ellipse class="cls-2" cx="108.81" cy="233.2" rx="39.22" ry="22.64" transform="translate(-102.02 85.65) rotate(-30)"/><ellipse class="cls-2" cx="106.94" cy="173.51" rx="22.64" ry="39.22" transform="translate(-96.83 178.09) rotate(-59.64)"/><ellipse class="cls-2" cx="264.36" cy="250.11" rx="22.64" ry="39.22" transform="translate(-99.42 260.19) rotate(-45)"/><ellipse class="cls-2" cx="289.57" cy="197.05" rx="39.22" ry="22.64"/><ellipse class="cls-2" cx="258.9" cy="146.98" rx="39.22" ry="22.64" transform="translate(-28.1 226.12) rotate(-45)"/></svg>